<svg xmlns="http://www.w3.org/2000/svg" viewBox="0 0 256 319" preserveAspectRatio="xMidYMid"><defs><clipPath id="a"><path d="M181.5 2.3 180 0H23.1C10.3 0 0 10.3 0 23.1v272.4C0 308.3 10.3 319 23.1 319h209.7c12.8 0 23.1-10.4 23.1-23.1V24.6l-25.1-1.2-1.1 27.4c0 .3-.3.6-.7.6-.2 0-.5-.1-.6-.4l-9-11-10.6 12.1c-.3.3-.7.4-1 .2a.7.7 0 0 1-.3-.6l-1-28.3Z"/></clipPath></defs><g clip-path="url(#a)"><path fill="#FF4785" d="M181.5 2.3 180 0H23.1C10.3 0 0 10.3 0 23.1v272.4C0 308.3 10.3 319 23.1 319h209.7c12.8 0 23.1-10.4 23.1-23.1V24.6l-25.1-1.2-1.1 27.4c0 .3-.3.6-.7.6-.2 0-.5-.1-.6-.4l-9-11-10.6 12.1c-.3.3-.7.4-1 .2a.7.7 0 0 1-.3-.6l-1-28.3Z"/><path fill="#fff" d="M129.6 110.5c0 4.4 36.6 2.3 41.6-.8 0-37.4-20.2-57-57-57s-57 19.2-57 48c0 49.6 67 50.5 67 77.5 0 7.8-3.6 12.3-11.8 12.3-10.8 0-15.2-5.5-14.6-24.2 0-3.4-42.3-4.5-43.8 0C51 212.8 75.8 234 114.8 234c37.7 0 65.3-20 65.3-53 0-53.2-68-51.6-68-78.3 0-10.8 8-12.3 12.6-12.3 5 0 13.6.6 5 20Z"/></g></svg>
