<svg width="112" height="75" viewBox="0 0 112 75" fill="none" xmlns="http://www.w3.org/2000/svg">
<path d="M111.773 74.6496H94.0733L83.5076 60.5429L59.4408 28.4186C58.9066 27.6976 58.6206 26.8285 58.6206 25.9374C58.6206 25.0463 58.9097 24.174 59.4408 23.4561L66.4428 14.1104L101.22 60.5586L111.77 74.6527L111.773 74.6496Z" fill="#0042FB"/>
<path d="M30.4016 62.2338L21.0992 74.6496H90.6973L81.3855 62.2243C80.9927 61.7048 80.4836 61.2797 79.899 60.9869C79.3145 60.694 78.6671 60.5429 78.0134 60.5397H33.7769C33.12 60.5397 32.4758 60.6972 31.8881 60.99C31.3004 61.2829 30.7945 61.7079 30.4016 62.2306V62.2338Z" fill="#0042FB"/>
<path d="M17.7122 74.6553L64.7458 11.8301L55.8865 0L0 74.6553H17.7122Z" fill="#0042FB"/>
</svg>
